<svg xmlns="http://www.w3.org/2000/svg" width="281.012" height="22.079" viewBox="0 0 281.012 22.079">
  <path id="合体_1" data-name="合体 1" d="M-13600.893,14.67a4.19,4.19,0,0,0-.922-2.615,21.121,21.121,0,0,1-7.386,1.458h-.006a21.128,21.128,0,0,1-7.389-1.458,4.186,4.186,0,0,0-.919,2.615l.011,6.295a24.013,24.013,0,0,1-5.122-1.309A18.846,18.846,0,0,1-13627,17.63c.135-2.857,2.637-5.4,6.578-7.149-3.941-1.748-6.443-4.289-6.582-7.146a18.9,18.9,0,0,1,4.376-2.022A23.921,23.921,0,0,1-13617.5,0l-.011,6.295a4.186,4.186,0,0,0,.919,2.615,21.128,21.128,0,0,1,7.389-1.458h.006a21.121,21.121,0,0,1,7.386,1.458,4.19,4.19,0,0,0,.922-2.615l-.013-6.295a23.921,23.921,0,0,1,5.121,1.313,18.9,18.9,0,0,1,4.376,2.022c-.139,2.857-2.638,5.4-6.582,7.146,3.944,1.751,6.443,4.292,6.582,7.149a18.964,18.964,0,0,1-4.376,2.025,24.014,24.014,0,0,1-5.121,1.309Zm-13.7-4.534c-.19.135-.348.248-.48.345.133.1.29.213.48.348a9.105,9.105,0,0,0,5.312,1.461h.151a9.1,9.1,0,0,0,5.312-1.461c.19-.135.348-.248.48-.348-.133-.1-.29-.21-.48-.345a9.1,9.1,0,0,0-5.312-1.461h-.151A9.105,9.105,0,0,0-13614.592,10.136Zm264.582,6.434a1.508,1.508,0,0,1,1.506-1.506,1.507,1.507,0,0,1,1.5,1.506,1.507,1.507,0,0,1-1.5,1.506A1.508,1.508,0,0,1-13350.01,16.569Zm.265,0a1.242,1.242,0,0,0,1.241,1.242,1.242,1.242,0,0,0,1.242-1.242,1.24,1.24,0,0,0-1.242-1.242A1.24,1.24,0,0,0-13349.745,16.566Zm-6.714,1.509-2.932-4.473h-3.27l-1.732-3.186h7.068a1.081,1.081,0,0,0,1.2-1.2V7.865a1.083,1.083,0,0,0-1.2-1.2h-7.616V18.075h-4.176V2.886h12.444c3.144,0,4.728,1.9,4.728,4.557v1.6c0,2.322-1,3.857-3,4.473l3,4.557Zm-28.225,0a4.036,4.036,0,0,1-4.389-4.389V2.886h4.18v10a1.216,1.216,0,0,0,1.37,1.371h6.012a1.217,1.217,0,0,0,1.37-1.371v-10h4.176v10.8a4.033,4.033,0,0,1-4.385,4.389Zm-20.629,0a4.034,4.034,0,0,1-4.389-4.389V7.275a4.034,4.034,0,0,1,4.389-4.389h9.217a4.033,4.033,0,0,1,4.386,4.389v6.411a4.033,4.033,0,0,1-4.386,4.389Zm-.213-10.042v4.9a1.218,1.218,0,0,0,1.37,1.371h6.9a1.216,1.216,0,0,0,1.37-1.371v-4.9a1.216,1.216,0,0,0-1.37-1.371h-6.9A1.218,1.218,0,0,0-13405.525,8.033Zm-11.031,10.042v-5l.273-5.273-1.9,3.967-3.544,6.308h-3.628l-3.521-6.308-1.941-3.967.316,5.273v5h-4.135V2.886h4.24a1.916,1.916,0,0,1,2,1.225l3.525,6.621,1.328,3.06,1.349-3.06,3.5-6.621a1.94,1.94,0,0,1,2.006-1.225h4.237V18.075Zm-25.274,0-2.931-4.473h-3.268l-1.73-3.186h7.068a1.079,1.079,0,0,0,1.2-1.2V7.865a1.081,1.081,0,0,0-1.2-1.2h-7.616V18.075h-4.178V2.886h12.445c3.145,0,4.725,1.9,4.725,4.557v1.6c0,2.322-.993,3.857-2.993,4.473l2.993,4.557Zm-18.8,0-1.245-2.428h-5.375l-1.731-3.183h5.462l-3.1-6.034-5.924,11.645h-4.895l7.976-15.189h4.236c1.185,0,1.729.255,2.174,1.077l7.362,14.112Zm-27.159,0-2.932-4.473h-3.27l-1.729-3.186h7.065a1.079,1.079,0,0,0,1.2-1.2V7.865a1.081,1.081,0,0,0-1.2-1.2h-7.614V18.075h-4.176V2.886H-13488c3.144,0,4.724,1.9,4.724,4.557v1.6c0,2.322-.993,3.857-3,4.473l3,4.557Zm-29.4,0a2.328,2.328,0,0,1-2.531-2.531V5.418a2.328,2.328,0,0,1,2.531-2.532h14.112V6.7h-12.158a.31.31,0,0,0-.31.31v6.933a.31.31,0,0,0,.31.31h12.158v3.818Zm-15.841,0-1.983-3.776h7.214a1.218,1.218,0,0,0,1.371-1.371v-4.9a1.218,1.218,0,0,0-1.371-1.371h-7.8V18.075h-4.177V2.886h13.139a4.035,4.035,0,0,1,4.389,4.389v6.411a4.035,4.035,0,0,1-4.389,4.389Zm-13.018,0a2.441,2.441,0,0,1-2.235-.864l-5.653-6.456-2.36-2.848.167,3.544v6.624h-4.176V2.886h3.354a2.374,2.374,0,0,1,2.216.845l5.673,6.434,2.132,2.7-.107-3.5V2.886h4.177V18.075Zm-29.869,0a4.034,4.034,0,0,1-4.386-4.389V2.886h4.176v10a1.218,1.218,0,0,0,1.371,1.371h6.011a1.218,1.218,0,0,0,1.371-1.371v-10h4.176v10.8a4.034,4.034,0,0,1-4.386,4.389Zm227.726-.79-.429-.613h-.148v.613h-.242V15.853h.532c.339,0,.464.164.464.4a.365.365,0,0,1-.341.41l.436.622Zm-.577-.79h.226c.2,0,.277-.081.277-.235s-.081-.219-.277-.219h-.226Zm-164.667-4.621-1.562-2.889h10.146l1.561,2.889Z" transform="translate(13627.513 0.557)" fill="#fff" stroke="rgba(0,0,0,0)" stroke-miterlimit="10" stroke-width="1"/>
</svg>
