<svg xmlns="http://www.w3.org/2000/svg" width="587.438" height="43.984" viewBox="0 0 587.438 43.984">
  <g id="グループ_1702" data-name="グループ 1702" transform="translate(-570.341 -3804.928)">
    <g id="グループ_91" data-name="グループ 91" transform="translate(570.341 3804.928)">
      <g id="グループ_90" data-name="グループ 90" transform="translate(97.95 6.055)">
        <path id="パス_248" data-name="パス 248" d="M948.678,3812.963c6.594,0,9.912,3.982,9.912,9.558v3.363c0,4.868-2.084,8.092-6.283,9.381l6.283,9.559h-9.47l-6.151-9.381H936.11l-3.63-6.682h14.826a2.267,2.267,0,0,0,2.523-2.522v-2.833a2.267,2.267,0,0,0-2.523-2.523H931.329v23.94h-8.761v-31.861Z" transform="translate(-755.015 -3812.962)" fill="#fff"/>
        <path id="パス_249" data-name="パス 249" d="M1076.61,3812.963c6.594,0,9.912,3.982,9.912,9.558v3.363c0,4.868-2.084,8.092-6.284,9.381l6.284,9.559h-9.47l-6.151-9.381h-6.858l-3.629-6.682h14.825a2.266,2.266,0,0,0,2.522-2.522v-2.833a2.266,2.266,0,0,0-2.522-2.523h-15.977v23.94H1050.5v-31.861Z" transform="translate(-786.513 -3812.962)" fill="#fff"/>
        <path id="パス_250" data-name="パス 250" d="M1314.212,3812.963c6.594,0,9.912,3.982,9.912,9.558v3.363c0,4.868-2.084,8.092-6.284,9.381l6.284,9.559h-9.47l-6.15-9.381h-6.859l-3.629-6.682h14.825a2.266,2.266,0,0,0,2.522-2.522v-2.833a2.266,2.266,0,0,0-2.522-2.523h-15.977v23.94h-8.76v-31.861Z" transform="translate(-845.015 -3812.962)" fill="#fff"/>
        <path id="パス_251" data-name="パス 251" d="M736.174,3835.619c0,5.355-3.053,9.206-9.2,9.206h-17.48c-6.15,0-9.2-3.851-9.2-9.206v-22.658h8.761v20.977a2.555,2.555,0,0,0,2.878,2.877h12.611a2.555,2.555,0,0,0,2.878-2.877v-20.977h8.761Z" transform="translate(-700.285 -3812.961)" fill="#fff"/>
        <path id="パス_252" data-name="パス 252" d="M762.98,3812.963c2.257,0,3.186.175,4.647,1.771l11.9,13.5L784,3833.9l-.222-7.346v-13.585h8.763v31.861h-6.682c-2.257,0-3.318-.266-4.691-1.813l-11.859-13.542-4.955-5.974.354,7.435v13.9h-8.763v-31.861Z" transform="translate(-713.989 -3812.962)" fill="#fff"/>
        <path id="パス_253" data-name="パス 253" d="M841.082,3834.028v-10.267a2.553,2.553,0,0,0-2.877-2.875H821.831v23.94H813.07v-31.864h27.57c6.151,0,9.205,3.849,9.205,9.206v13.453c0,5.355-3.054,9.2-9.205,9.2H827.232l-4.159-7.922h15.133a2.554,2.554,0,0,0,2.877-2.876" transform="translate(-728.054 -3812.961)" fill="#fff"/>
        <path id="パス_254" data-name="パス 254" d="M903.822,3820.973H878.316a.647.647,0,0,0-.649.646v14.547a.648.648,0,0,0,.649.648h25.506v8.01H874.215c-3.541,0-5.311-2.212-5.311-5.311v-21.242c0-3.1,1.77-5.311,5.311-5.311h29.606Zm-.443,10.841H882.092l-3.276-6.062H900.1Z" transform="translate(-741.802 -3812.961)" fill="#fff"/>
        <path id="パス_255" data-name="パス 255" d="M986.592,3844.825l16.728-31.861h8.895c2.478,0,3.628.53,4.557,2.256l15.445,29.6h-10.356l-2.611-5.089h-11.283l-3.63-6.682H1015.8l-6.507-12.656-12.433,24.427Z" transform="translate(-770.778 -3812.961)" fill="#fff"/>
        <path id="パス_256" data-name="パス 256" d="M1114.64,3812.963a4.018,4.018,0,0,1,4.2,2.566l7.392,13.9,2.787,6.417,2.832-6.417,7.348-13.9a4.074,4.074,0,0,1,4.2-2.566h8.895v31.861h-8.629v-10.487l.574-11.064-3.984,8.321-7.434,13.23h-7.612l-7.39-13.23-4.071-8.321.663,11.064v10.487h-8.673v-31.861Z" transform="translate(-800.115 -3812.962)" fill="#fff"/>
        <path id="パス_257" data-name="パス 257" d="M1184.347,3812.962h19.337c6.152,0,9.207,3.851,9.207,9.206v13.453c0,5.355-3.055,9.2-9.207,9.2h-19.337c-6.152,0-9.207-3.849-9.207-9.2v-13.453c0-5.355,3.054-9.206,9.207-9.206m16.9,23.942a2.554,2.554,0,0,0,2.876-2.876V3823.76a2.553,2.553,0,0,0-2.876-2.875H1186.78a2.553,2.553,0,0,0-2.877,2.875v10.267a2.554,2.554,0,0,0,2.877,2.876Z" transform="translate(-817.202 -3812.961)" fill="#fff"/>
        <path id="パス_258" data-name="パス 258" d="M1268.452,3835.619c0,5.355-3.053,9.206-9.205,9.206h-17.48c-6.15,0-9.2-3.851-9.2-9.206v-22.658h8.763v20.977a2.554,2.554,0,0,0,2.877,2.877h12.611a2.554,2.554,0,0,0,2.876-2.877v-20.977h8.764Z" transform="translate(-831.34 -3812.961)" fill="#fff"/>
      </g>
      <path id="パス_259" data-name="パス 259" d="M619.987,3826.92c-.279.205-.61.444-1.01.726-2.566,1.819-6.3,3.066-11.14,3.066l-.151,0h-.017l-.152,0c-4.845,0-8.574-1.247-11.14-3.066-.4-.282-.73-.521-1.009-.726.279-.207.609-.446,1.009-.727,2.566-1.818,6.295-3.066,11.14-3.066h.32c4.845,0,8.574,1.248,11.14,3.066.4.282.731.521,1.01.727m25.025-14.995s-2.2-1.683-9.177-4.247a50.156,50.156,0,0,0-10.744-2.751l.021,13.206a8.787,8.787,0,0,1-1.93,5.49,44.347,44.347,0,0,0-15.5-3.059h-.014a44.327,44.327,0,0,0-15.5,3.06,8.79,8.79,0,0,1-1.931-5.49l.021-13.206a50.157,50.157,0,0,0-10.744,2.751c-6.972,2.564-9.178,4.247-9.178,4.247.289,5.993,5.537,11.321,13.808,14.995-8.271,3.673-13.519,9-13.808,14.994,0,0,2.205,1.683,9.177,4.246a50.1,50.1,0,0,0,10.744,2.751l-.02-13.206a8.785,8.785,0,0,1,1.93-5.49,44.331,44.331,0,0,0,15.5,3.059h.014a44.3,44.3,0,0,0,15.5-3.06,8.794,8.794,0,0,1,1.93,5.491l-.021,13.206a50.1,50.1,0,0,0,10.744-2.751c6.973-2.563,9.177-4.246,9.177-4.246-.289-5.993-5.537-11.322-13.808-14.994,8.271-3.674,13.519-9,13.808-14.995" transform="translate(-570.341 -3804.928)" fill="#fff"/>
    </g>
    <g id="グループ_93" data-name="グループ 93" transform="translate(1151.463 3836.532)">
      <g id="グループ_92" data-name="グループ 92" transform="translate(0)">
        <path id="パス_260" data-name="パス 260" d="M1347.045,3850a2.605,2.605,0,1,1-2.606-2.6,2.606,2.606,0,0,1,2.606,2.6m.551.009a3.158,3.158,0,1,0-3.157,3.157,3.162,3.162,0,0,0,3.157-3.157" transform="translate(-1341.28 -3846.855)" fill="#fff"/>
        <path id="パス_261" data-name="パス 261" d="M1345.75,3852.056h.574l-.915-1.3a.778.778,0,0,0,.719-.865c0-.493-.263-.838-.975-.838h-1.119v3.005h.51v-1.286h.312Zm-1.205-2.614h.474c.412,0,.582.144.582.464s-.157.49-.582.49h-.474Z" transform="translate(-1341.958 -3847.396)" fill="#fff"/>
      </g>
    </g>
  </g>
</svg>
